<?xml version="1.0" standalone="no"?>
<!DOCTYPE svg PUBLIC "-//W3C//DTD SVG 20010904//EN"
 "http://www.w3.org/TR/2001/REC-SVG-20010904/DTD/svg10.dtd">
<svg version="1.0" xmlns="http://www.w3.org/2000/svg"
 width="1778.000000pt" height="341.000000pt" viewBox="0 0 1778.000000 341.000000"
 preserveAspectRatio="xMidYMid meet">

<g transform="translate(0.000000,341.000000) scale(0.100000,-0.100000)"
fill="#000000" stroke="none">
<path d="M1525 3380 c-223 -22 -515 -133 -731 -278 -291 -196 -531 -507 -643
-836 -74 -215 -85 -288 -85 -561 -1 -265 7 -320 68 -502 97 -289 231 -500 451
-711 369 -355 844 -511 1362 -447 336 42 611 161 868 377 237 199 413 454 517
748 110 313 113 752 8 1060 -120 348 -339 645 -630 854 -184 132 -484 257
-685 286 -108 15 -389 21 -500 10z m328 -918 l27 -12 0 -483 0 -484 92 -7 c50
-3 151 -6 224 -6 73 0 144 -4 158 -10 l26 -10 0 -185 0 -185 -27 -11 c-35 -13
-793 -32 -919 -23 -50 3 -98 10 -105 15 -12 7 -14 122 -14 699 0 680 0 692 20
707 17 12 58 14 255 11 148 -3 245 -9 263 -16z"/>
<path d="M4013 2944 c-12 -3 -24 -13 -28 -22 -12 -32 -24 -669 -24 -1302 0
-609 7 -832 26 -851 13 -13 1528 7 1576 21 25 7 41 19 47 36 5 13 11 25 12 26
2 0 146 4 320 7 299 6 318 7 345 27 37 27 59 73 78 164 9 41 20 79 26 85 13
13 195 19 343 10 l124 -7 17 -66 c48 -181 52 -190 93 -202 22 -6 175 -10 382
-10 297 0 349 2 368 16 12 8 22 23 22 34 0 10 -23 83 -51 162 -27 78 -86 260
-129 403 -43 143 -96 303 -118 355 -22 52 -52 138 -67 190 -65 229 -226 698
-246 716 -20 18 -48 19 -498 22 l-476 3 -97 -288 c-101 -299 -179 -544 -339
-1062 l-94 -304 -8 89 c-17 192 -17 191 -40 199 -12 4 -182 11 -377 17 -195 6
-357 12 -359 14 -2 2 1 331 7 731 6 400 7 732 2 737 -4 4 -34 17 -67 28 -53
19 -86 21 -403 24 -190 1 -355 0 -367 -2z m2642 -623 c3 -5 9 -29 14 -53 5
-24 34 -158 65 -298 30 -140 58 -274 62 -297 l7 -43 -172 0 -171 0 0 23 c0 13
18 97 41 188 22 90 53 226 69 302 33 157 61 216 85 178z"/>
<path d="M14630 2780 c-69 -15 -160 -38 -202 -49 -43 -12 -87 -21 -98 -21 -61
0 -218 -111 -304 -217 -141 -170 -207 -395 -207 -703 0 -308 98 -553 292 -735
228 -213 551 -279 964 -198 217 42 361 130 488 295 149 195 217 439 204 727
-9 200 -58 355 -167 527 -22 35 -47 82 -56 104 -35 86 -225 210 -389 254 -204
53 -343 58 -525 16z m275 -533 c32 -31 48 -59 63 -108 65 -210 49 -590 -30
-730 -30 -55 -76 -81 -143 -83 -71 -1 -100 21 -145 109 l-35 70 0 310 c0 300
1 311 22 351 29 54 71 104 97 114 12 5 45 9 75 9 50 1 56 -2 96 -42z"/>
<path d="M7830 1811 l0 -951 660 0 660 0 81 40 c113 57 210 121 257 170 122
127 165 335 107 517 -42 133 -101 208 -199 253 l-59 27 60 46 c69 52 127 121
149 173 21 49 29 192 16 282 -21 147 -98 243 -254 317 -51 24 -115 49 -143 56
-37 9 -220 13 -692 16 l-643 4 0 -950z m935 499 c55 -24 82 -53 95 -100 21
-78 -14 -160 -83 -193 -38 -19 -188 -50 -197 -41 -2 3 -6 82 -8 176 -4 136 -2
172 9 180 20 13 137 -1 184 -22z m-25 -651 c45 -12 86 -30 101 -46 34 -32 53
-99 47 -165 -5 -45 -11 -57 -42 -84 -22 -19 -59 -37 -87 -44 -56 -14 -189 -17
-207 -6 -7 4 -12 21 -12 38 0 29 38 289 46 316 5 18 69 15 154 -9z"/>
<path d="M10258 2753 c-20 -5 -71 -150 -236 -663 -242 -755 -372 -1178 -372
-1211 0 -18 12 -19 323 -19 323 0 396 7 429 37 19 17 39 81 58 179 l12 61 91
7 c49 3 156 6 236 6 l146 0 28 -107 c47 -178 39 -169 147 -176 122 -9 638 -7
670 2 52 15 40 60 -331 1181 -138 417 -227 672 -240 685 -19 19 -34 20 -482
22 -254 0 -469 -1 -479 -4z m498 -460 c3 -21 17 -85 30 -143 14 -58 44 -198
67 -312 l43 -208 -177 0 -177 0 9 38 c4 20 20 90 34 154 14 64 36 152 50 195
14 43 30 112 35 154 11 95 36 159 61 159 13 0 20 -10 25 -37z"/>
<path d="M11920 1810 l0 -950 660 0 660 0 68 34 c279 141 387 270 407 491 5
54 2 88 -14 149 -43 164 -109 258 -215 306 l-58 27 65 51 c146 116 199 261
163 442 -36 177 -122 277 -297 346 -130 51 -182 54 -835 54 l-604 0 0 -950z
m860 519 c88 -14 135 -42 161 -97 38 -77 6 -182 -64 -215 -44 -21 -113 -36
-164 -37 -52 0 -50 -7 -57 203 l-4 157 31 0 c18 0 61 -5 97 -11z m39 -664 c81
-20 114 -39 139 -84 65 -116 18 -231 -109 -262 -80 -19 -185 -17 -206 4 -16
16 -16 24 0 138 10 67 22 143 28 170 10 48 11 49 47 49 20 0 66 -7 101 -15z"/>
<path d="M15830 2486 c0 -233 2 -265 17 -277 12 -11 66 -15 221 -17 l205 -4
-7 -266 c-4 -147 -11 -397 -16 -557 -16 -498 -17 -456 14 -480 26 -19 43 -20
412 -23 l384 -3 1 198 c1 109 5 409 8 668 l6 470 160 6 c88 4 184 7 213 8 l52
1 0 263 0 264 -322 6 c-178 4 -554 7 -835 7 l-513 0 0 -264z"/>
</g>
</svg>
